<svg width="40" height="35" viewBox="0 0 40 35" fill="none" xmlns="http://www.w3.org/2000/svg">
<path d="M8.18568 18.5553L3.22758 15.8727L11.8174 14.8127L16.7421 17.337L8.18568 18.5553ZM9 20.4595L19 19.0357V29.2992L9 30.5347V20.4595ZM7 20.1878V30.0296L1 26.9541L1 16.9414L7 20.1878ZM13 13.1715L13 3.15882L19 6.40514L19 16.2052V16.247L13 13.1715ZM21 29.5722V19.5613L27 22.8076V32.6491L21 29.5722ZM20.1857 4.77268L15.233 2.09303L23.9279 1.03022L28.7735 3.54993L20.1857 4.77268ZM21 6.67691L31.0107 5.25157L31.106 15.5183L21 16.7536V16.7308L21 6.67691ZM28.1857 21.1751L23.233 18.4955L31.9279 17.4327L36.7735 19.9524L28.1857 21.1751ZM29 23.0794L38.9914 21.6568L38.915 420.9432L29 33.1559V23.0794Z" stroke="#227ABA" stroke-width="2"/>
</svg>
